<svg viewBox="0 0 24 24" xmlns="http://www.w3.org/2000/svg">
  <defs>
    <linearGradient id="favGrad" x1="0%" y1="0%" x2="100%" y2="100%">
      <stop offset="0%" stop-color="#0ea0b8" />
      <stop offset="100%" stop-color="#0c6d85" />
    </linearGradient>
  </defs>
  <path d="M12 2C9.8 2 8 3.1 7 4.8 6.2 4.3 5.3 4 4.3 4 2 4 0 6 0 8.5c0 4 3 7 6 8l0.8 5.5c0.2 1.1 1.1 2 2.2 2s2-.9 2.2-2L12 17l0.8 5.5c0.2 1.1 1.1 2 2.2 2s2-.9 2.2-2L18 14c3-1 6-4 6-8C24 6 22 4 19.7 4c-1 0-1.9 0.3-2.7 0.8C16 3.1 14.2 2 12 2z" fill="url(#favGrad)"/>
</svg>